<?xml version="1.0" encoding="utf-8"?>
<!-- Generator: Adobe Illustrator 16.0.0, SVG Export Plug-In . SVG Version: 6.00 Build 0)  -->
<!DOCTYPE svg PUBLIC "-//W3C//DTD SVG 1.1//EN" "http://www.w3.org/Graphics/SVG/1.1/DTD/svg11.dtd">
<svg version="1.1" id="Layer_1" xmlns="http://www.w3.org/2000/svg" xmlns:xlink="http://www.w3.org/1999/xlink" x="0px" y="0px"
	 width="497px" height="165px" viewBox="0 0 497 165" enable-background="new 0 0 497 165" xml:space="preserve">
<title>Logo</title>
<desc>Created with Sketch.</desc>
<g id="Page-1">
	<g id="Logo">
		<path id="Fill-1" d="M19.941,1.729L0.001,162.832h22.131l3.065-30.315h18.188l3.286,30.315h23.886L49.303,1.729H19.941z
			 M34.183,48.934l6.574,59.546H27.829L34.183,48.934z"/>
		<g id="Group-10" transform="translate(91.721464, 0.110662)">
			<path id="Fill-2" d="M29.497,89.315v50.669h7.45c7.889,0,9.642-3.681,9.642-10.826v-29.45c0-6.712-1.753-10.393-9.642-10.393
				H29.497z M29.497,23.488v41.792h7.45c6.792,0,8.546-4.548,8.546-11.26V33.664c0-6.712-1.754-10.176-8.546-10.176H29.497z
				 M4.735,1.618h39.004c20.38,0,26.077,10.61,26.077,26.201v24.685c0,13.641-5.917,19.921-12.271,22.303
				c6.354,2.381,14.242,7.362,14.242,23.602v34.863c0,17.105-7.668,29.449-26.294,29.449H4.735V1.618z"/>
			<polygon id="Fill-4" points="163.074,1.618 163.074,25.003 142.255,25.003 142.255,162.721 117.714,162.721 117.714,25.003 
				96.896,25.003 96.896,1.618 			"/>
			<polygon id="Fill-6" points="189.937,162.72 214.698,162.72 214.698,1.618 189.937,1.618 			"/>
			<path id="Fill-8" d="M285.102,35.831c0-8.229-2.85-12.344-8.547-12.344c-6.354,0-8.765,3.898-8.765,12.344v92.676
				c0,6.931,1.973,12.344,8.984,12.344c6.793,0,8.327-5.413,8.327-12.344V35.831z M310.3,126.775
				c0,22.52-7.668,37.894-31.554,37.894h-4.163c-23.667,0-31.992-15.374-31.992-37.894V37.129c0-22.52,8.325-37.027,31.774-37.027
				h4.162c24.104,0,31.772,14.724,31.772,36.811V126.775z"/>
			<polygon id="Fill-9" points="360.809,1.618 382.064,88.016 382.064,1.618 404.634,1.618 404.634,162.721 384.475,162.721 
				360.809,70.044 360.809,162.721 338.458,162.721 338.458,1.618 			"/>
		</g>
	</g>
</g>
</svg>
